<?xml version="1.0" encoding="UTF-8" standalone="no"?>
<!-- Created with Inkscape (http://www.inkscape.org/) -->

<svg
   xmlns:dc="http://purl.org/dc/elements/1.1/"
   xmlns:cc="http://creativecommons.org/ns#"
   xmlns:rdf="http://www.w3.org/1999/02/22-rdf-syntax-ns#"
   xmlns:svg="http://www.w3.org/2000/svg"
   xmlns="http://www.w3.org/2000/svg"
   xmlns:sodipodi="http://sodipodi.sourceforge.net/DTD/sodipodi-0.dtd"
   xmlns:inkscape="http://www.inkscape.org/namespaces/inkscape"
   width="74.024025mm"
   height="23.267097mm"
   viewBox="-0.1 0 74.024025 23.267098"
   version="1.1"
   id="svg8805"
   inkscape:version="0.92.5 (2060ec1f9f, 2020-04-08)"
   sodipodi:docname="logo.svg">
  <defs
     id="defs8799" />
  <sodipodi:namedview
     id="base"
     pagecolor="#ffffff"
     bordercolor="#666666"
     borderopacity="1.0"
     inkscape:pageopacity="0.0"
     inkscape:pageshadow="2"
     inkscape:zoom="2.8"
     inkscape:cx="157.39184"
     inkscape:cy="39.136185"
     inkscape:document-units="mm"
     inkscape:current-layer="layer1"
     showgrid="false"
     fit-margin-top="0"
     fit-margin-left="0"
     fit-margin-right="0"
     fit-margin-bottom="0"
     inkscape:window-width="1848"
     inkscape:window-height="1016"
     inkscape:window-x="72"
     inkscape:window-y="27"
     inkscape:window-maximized="1" />
  <metadata
     id="metadata8802">
    <rdf:RDF>
      <cc:Work
         rdf:about="">
        <dc:format>image/svg+xml</dc:format>
        <dc:type
           rdf:resource="http://purl.org/dc/dcmitype/StillImage" />
        <dc:title></dc:title>
      </cc:Work>
    </rdf:RDF>
  </metadata>
  <g
     inkscape:label="Layer 1"
     inkscape:groupmode="layer"
     id="layer1"
     transform="translate(-65.533564,-106.20576)">
    <g
       id="g4839">
      <g
         transform="matrix(0.85076302,0,0,0.85076302,15.293196,17.585982)"
         id="g9511">
        <rect
           style="fill:none;fill-opacity:1;stroke:#000000;stroke-width:0.95960557;stroke-miterlimit:4;stroke-dasharray:none;stroke-opacity:1"
           id="rect1110"
           width="12.635498"
           height="19.268511"
           x="194.88116"
           y="55.881531"
           transform="matrix(0.92374527,0.3830074,-0.84407393,0.53622681,0,0)" />
        <g
           id="g9480">
          <g
             id="g9485">
            <path
               inkscape:connector-curvature="0"
               id="path1106"
               d="m 140.62248,116.4984 -0.13518,0.0803 0.12657,8.9655 -8.71626,5.22216 -0.14378,-10.24522 -0.14176,-0.36146 0.15188,10.87046 8.98763,-5.38266 z"
               style="color:#000000;font-style:normal;font-variant:normal;font-weight:normal;font-stretch:normal;font-size:medium;line-height:normal;font-family:sans-serif;font-variant-ligatures:normal;font-variant-position:normal;font-variant-caps:normal;font-variant-numeric:normal;font-variant-alternates:normal;font-feature-settings:normal;text-indent:0;text-align:start;text-decoration:none;text-decoration-line:none;text-decoration-style:solid;text-decoration-color:#000000;letter-spacing:normal;word-spacing:normal;text-transform:none;writing-mode:lr-tb;direction:ltr;text-orientation:mixed;dominant-baseline:auto;baseline-shift:baseline;text-anchor:start;white-space:normal;shape-padding:0;clip-rule:nonzero;display:inline;overflow:visible;visibility:visible;opacity:1;isolation:auto;mix-blend-mode:normal;color-interpolation:sRGB;color-interpolation-filters:linearRGB;solid-color:#000000;solid-opacity:1;vector-effect:none;fill:#000000;fill-opacity:1;fill-rule:nonzero;stroke:#000000;stroke-width:0.55249852;stroke-linecap:butt;stroke-linejoin:miter;stroke-miterlimit:4;stroke-dasharray:none;stroke-dashoffset:0;stroke-opacity:1;color-rendering:auto;image-rendering:auto;shape-rendering:auto;text-rendering:auto;enable-background:accumulate" />
            <path
               inkscape:connector-curvature="0"
               id="path1108"
               d="m 120.76219,116.923 0.0266,9.67925 10.94603,4.3722 -0.036,-13.24094 h -0.0214 v 0.11914 l -0.11863,-0.0104 0.0355,12.89134 -10.6654,-4.25892 -0.0267,-9.53993 z"
               style="color:#000000;font-style:normal;font-variant:normal;font-weight:normal;font-stretch:normal;font-size:medium;line-height:normal;font-family:sans-serif;font-variant-ligatures:normal;font-variant-position:normal;font-variant-caps:normal;font-variant-numeric:normal;font-variant-alternates:normal;font-feature-settings:normal;text-indent:0;text-align:start;text-decoration:none;text-decoration-line:none;text-decoration-style:solid;text-decoration-color:#000000;letter-spacing:normal;word-spacing:normal;text-transform:none;writing-mode:lr-tb;direction:ltr;text-orientation:mixed;dominant-baseline:auto;baseline-shift:baseline;text-anchor:start;white-space:normal;shape-padding:0;clip-rule:nonzero;display:inline;overflow:visible;visibility:visible;opacity:1;isolation:auto;mix-blend-mode:normal;color-interpolation:sRGB;color-interpolation-filters:linearRGB;solid-color:#000000;solid-opacity:1;vector-effect:none;fill:#000000;fill-opacity:1;fill-rule:nonzero;stroke:#000000;stroke-width:0.56725645;stroke-linecap:butt;stroke-linejoin:miter;stroke-miterlimit:4;stroke-dasharray:none;stroke-dashoffset:0;stroke-opacity:1;color-rendering:auto;image-rendering:auto;shape-rendering:auto;text-rendering:auto;enable-background:accumulate" />
            <rect
               transform="matrix(-0.85152713,0.52431055,-0.91967646,-0.39267697,0,0)"
               y="-211.2964"
               x="57.781746"
               height="20.662363"
               width="11.054818"
               id="rect1112"
               style="fill:none;fill-opacity:1;stroke:#000000;stroke-width:0.9294762;stroke-miterlimit:4;stroke-dasharray:none;stroke-opacity:1" />
          </g>
        </g>
      </g>
      <g
         id="g4824">
        <g
           id="text8761"
           style="font-style:normal;font-variant:normal;font-weight:300;font-stretch:normal;font-size:12.21647453px;line-height:1.25;font-family:Ubuntu;-inkscape-font-specification:'Ubuntu Light';letter-spacing:0px;word-spacing:0px;opacity:0.93999999;fill:#000000;fill-opacity:1;stroke:none;stroke-width:0.30541185"
           aria-label="box">
          <path
             id="path4770"
             style="font-style:normal;font-variant:normal;font-weight:300;font-stretch:normal;font-family:Ubuntu;-inkscape-font-specification:'Ubuntu Light';stroke-width:0.30541185"
             d="m 106.68583,122.83454 q -0.26876,0.35428 -0.53753,0.74521 -0.26876,0.39093 -0.5253,0.76964 -0.24433,0.37871 -0.45201,0.73299 -0.20768,0.34206 -0.35428,0.61082 h -0.81851 q 0.50088,-0.94067 1.05062,-1.74696 0.54974,-0.8185 1.12392,-1.60035 l -2.05237,-2.96861 h 0.92845 l 1.63701,2.41886 1.66144,-2.41886 h 0.86737 l -2.01572,2.91974 q 0.25655,0.34206 0.54974,0.7452 0.2932,0.40315 0.58639,0.84294 0.2932,0.42758 0.56196,0.8918 0.28098,0.46423 0.51309,0.91624 h -0.85515 q -0.1466,-0.26876 -0.35428,-0.61082 -0.20768,-0.35428 -0.46422,-0.73299 -0.24433,-0.37871 -0.52531,-0.76964 -0.26877,-0.39093 -0.52531,-0.74521 z m -3.59162,-0.29319 q 0,0.7452 -0.2199,1.35603 -0.20768,0.61082 -0.5986,1.0384 -0.37872,0.42757 -0.90402,0.6719 -0.52531,0.23212 -1.16057,0.23212 -0.635256,0 -1.160564,-0.23212 -0.525308,-0.24433 -0.916236,-0.6719 -0.37871,-0.42758 -0.598607,-1.0384 -0.20768,-0.61083 -0.20768,-1.35603 0,-0.74521 0.20768,-1.35603 0.219897,-0.61082 0.598607,-1.0384 0.390928,-0.43979 0.916236,-0.67191 0.525308,-0.24433 1.160564,-0.24433 0.63526,0 1.16057,0.24433 0.5253,0.23212 0.90402,0.67191 0.39092,0.42758 0.5986,1.0384 0.2199,0.61082 0.2199,1.35603 z m -0.84294,0 q 0,-1.185 -0.54974,-1.88134 -0.54974,-0.70855 -1.49041,-0.70855 -0.940667,0 -1.490409,0.70855 -0.549741,0.69634 -0.549741,1.88134 0,1.185 0.549741,1.88134 0.549742,0.69633 1.490409,0.69633 0.94067,0 1.49041,-0.69633 0.54974,-0.69634 0.54974,-1.88134 z m -10.872639,-2.78536 q 0.20768,-0.15881 0.659689,-0.32984 0.464226,-0.18325 1.087267,-0.18325 0.684122,0 1.209431,0.24433 0.537525,0.24433 0.904019,0.68412 0.366494,0.4398 0.549741,1.05062 0.195464,0.59861 0.195464,1.31938 0,0.76964 -0.232113,1.38046 -0.219897,0.61082 -0.635257,1.0384 -0.403144,0.42758 -0.977318,0.65969 -0.561958,0.2199 -1.258297,0.2199 -0.842937,0 -1.392678,-0.10995 -0.549741,-0.10995 -0.904019,-0.23211 v -9.13793 l 0.794071,-0.1466 z m 0,5.192 q 0.183247,0.0611 0.537525,0.12217 0.366494,0.0489 0.952885,0.0489 1.026184,0 1.649224,-0.65968 0.62304,-0.67191 0.62304,-1.91799 0,-0.52531 -0.109948,-0.98954 -0.109949,-0.47644 -0.354278,-0.8185 -0.24433,-0.35428 -0.647473,-0.56196 -0.390927,-0.20768 -0.977318,-0.20768 -0.280979,0 -0.537525,0.0611 -0.256546,0.0489 -0.476443,0.13439 -0.219896,0.0855 -0.390927,0.18324 -0.158814,0.0977 -0.268762,0.18325 z" />
        </g>
        <path
           sodipodi:type="inkscape:offset"
           inkscape:radius="0"
           inkscape:original="M 74.816406 116.18945 L 72.996094 116.48242 L 72.996094 119.38867 C 72.792486 119.29908 72.588374 119.23051 72.384766 119.18164 C 72.189302 119.13277 71.965364 119.10938 71.712891 119.10938 C 71.256809 119.10937 70.848584 119.1851 70.490234 119.33984 C 70.140029 119.49459 69.843939 119.71852 69.599609 120.01172 C 69.35528 120.30491 69.167418 120.66439 69.037109 121.08789 C 68.9068 121.50325 68.841797 121.97095 68.841797 122.49219 C 68.841797 123.00528 68.915902 123.46941 69.0625 123.88477 C 69.217242 124.29198 69.435652 124.64235 69.720703 124.93555 C 70.005754 125.2206 70.356124 125.44096 70.771484 125.5957 C 71.186845 125.75045 71.660073 125.82812 72.189453 125.82812 C 72.40935 125.82812 72.636862 125.81545 72.873047 125.79102 C 73.117376 125.77473 73.35399 125.74937 73.582031 125.7168 C 73.818216 125.68422 74.042154 125.64814 74.253906 125.60742 C 74.465658 125.55856 74.65352 125.5098 74.816406 125.46094 L 74.816406 116.18945 z M 66.521484 116.31055 C 66.228289 116.31055 65.97185 116.40805 65.751953 116.60352 C 65.540201 116.79083 65.433594 117.0528 65.433594 117.38672 C 65.433594 117.72064 65.540201 117.98422 65.751953 118.17969 C 65.97185 118.36701 66.228289 118.46094 66.521484 118.46094 C 66.81468 118.46094 67.065592 118.36701 67.277344 118.17969 C 67.49724 117.98422 67.607422 117.72064 67.607422 117.38672 C 67.607422 117.0528 67.49724 116.79083 67.277344 116.60352 C 67.065592 116.40805 66.81468 116.31055 66.521484 116.31055 z M 79.298828 119.07227 C 78.907901 119.07227 78.525029 119.14442 78.150391 119.29102 C 77.783896 119.43761 77.458879 119.6544 77.173828 119.93945 C 76.888777 120.2245 76.655737 120.58202 76.476562 121.01367 C 76.305532 121.43718 76.220703 121.9338 76.220703 122.50391 C 76.220703 122.97628 76.285707 123.417 76.416016 123.82422 C 76.554469 124.23143 76.762156 124.58538 77.039062 124.88672 C 77.324114 125.17991 77.678058 125.41295 78.101562 125.58398 C 78.533211 125.75502 79.038941 125.83984 79.617188 125.83984 C 79.845228 125.83984 80.07274 125.82717 80.300781 125.80273 C 80.528822 125.7783 80.740083 125.7458 80.935547 125.70508 C 81.139155 125.6725 81.323442 125.63285 81.486328 125.58398 C 81.649214 125.53512 81.779221 125.48637 81.876953 125.4375 L 81.632812 123.95898 C 81.429205 124.04857 81.163663 124.12625 80.837891 124.19141 C 80.520262 124.24842 80.195245 124.27539 79.861328 124.27539 C 79.340092 124.27539 78.924718 124.16521 78.615234 123.94531 C 78.30575 123.72542 78.130565 123.42933 78.089844 123.05469 L 82.21875 123.05469 C 82.226894 122.95696 82.235996 122.84677 82.244141 122.72461 C 82.252285 122.5943 82.255859 122.47697 82.255859 122.37109 C 82.255859 121.2879 81.990318 120.46788 81.460938 119.91406 C 80.931557 119.3521 80.210992 119.07227 79.298828 119.07227 z M 85.96875 119.07227 C 85.756998 119.07227 85.545737 119.08494 85.333984 119.10938 C 85.130376 119.12566 84.935366 119.14906 84.748047 119.18164 C 84.560728 119.20607 84.385543 119.23858 84.222656 119.2793 C 84.067914 119.31187 83.937907 119.34438 83.832031 119.37695 L 84.064453 120.84375 C 84.28435 120.76231 84.544363 120.70088 84.845703 120.66016 C 85.147043 120.61129 85.452235 120.58594 85.761719 120.58594 C 86.225945 120.58594 86.550962 120.67987 86.738281 120.86719 C 86.925601 121.05451 87.019531 121.3038 87.019531 121.61328 L 87.019531 121.7832 C 86.905511 121.75063 86.755679 121.72723 86.568359 121.71094 C 86.389184 121.6865 86.181498 121.67383 85.945312 121.67383 C 85.595107 121.67383 85.257413 121.7099 84.931641 121.7832 C 84.605868 121.84836 84.316927 121.95854 84.064453 122.11328 C 83.811979 122.26802 83.607867 122.47571 83.453125 122.73633 C 83.306527 122.99695 83.232422 123.31481 83.232422 123.68945 C 83.232422 124.08038 83.297425 124.41093 83.427734 124.67969 C 83.558043 124.94845 83.745905 125.16881 83.990234 125.33984 C 84.234564 125.50273 84.523505 125.62006 84.857422 125.69336 C 85.199483 125.76666 85.57878 125.80273 85.994141 125.80273 C 86.65383 125.80273 87.215461 125.76308 87.679688 125.68164 C 88.143914 125.60834 88.50696 125.54334 88.767578 125.48633 L 88.767578 121.69922 C 88.767578 121.30015 88.7224 120.9371 88.632812 120.61133 C 88.543225 120.28556 88.387865 120.00929 88.167969 119.78125 C 87.956217 119.55321 87.67085 119.37802 87.3125 119.25586 C 86.95415 119.13369 86.506275 119.07227 85.96875 119.07227 z M 65.617188 119.24219 L 65.617188 125.66797 L 67.4375 125.66797 L 67.4375 119.24219 L 65.617188 119.24219 z M 79.324219 120.57422 C 79.535971 120.57422 79.711156 120.61029 79.849609 120.68359 C 79.996207 120.75689 80.113538 120.85082 80.203125 120.96484 C 80.300857 121.07886 80.369435 121.20887 80.410156 121.35547 C 80.459022 121.50207 80.487949 121.65385 80.496094 121.80859 L 78.089844 121.80859 C 78.114277 121.65385 78.150353 121.50207 78.199219 121.35547 C 78.256229 121.20073 78.333909 121.06715 78.431641 120.95312 C 78.529372 120.8391 78.65223 120.74875 78.798828 120.68359 C 78.945426 120.61029 79.120611 120.57422 79.324219 120.57422 z M 71.994141 120.64844 C 72.18146 120.64844 72.363794 120.67184 72.542969 120.7207 C 72.730288 120.76957 72.882073 120.831 72.996094 120.9043 L 72.996094 124.21484 C 72.906506 124.23113 72.79275 124.24738 72.654297 124.26367 C 72.515843 124.27182 72.364058 124.27539 72.201172 124.27539 C 71.704369 124.27539 71.330599 124.10573 71.078125 123.76367 C 70.825651 123.42161 70.699219 122.96821 70.699219 122.40625 C 70.699219 121.23347 71.130843 120.64844 71.994141 120.64844 z M 86.287109 122.89648 C 86.409274 122.89648 86.542855 122.90363 86.689453 122.91992 C 86.836051 122.93621 86.946232 122.95246 87.019531 122.96875 L 87.019531 124.34961 C 86.921799 124.3659 86.791793 124.37857 86.628906 124.38672 C 86.46602 124.39486 86.294409 124.39844 86.115234 124.39844 C 85.781317 124.39844 85.517729 124.34611 85.322266 124.24023 C 85.134946 124.12621 85.041016 123.92568 85.041016 123.64062 C 85.041016 123.49403 85.073517 123.37117 85.138672 123.27344 C 85.203826 123.17571 85.294183 123.09998 85.408203 123.04297 C 85.522224 122.98596 85.65223 122.94793 85.798828 122.93164 C 85.95357 122.90721 86.116079 122.89648 86.287109 122.89648 z "
           style="font-style:normal;font-variant:normal;font-weight:bold;font-stretch:normal;font-size:12.21647453px;line-height:1.25;font-family:Ubuntu;-inkscape-font-specification:'Ubuntu Bold';letter-spacing:0px;word-spacing:0px;opacity:0.93999999;fill:#000000;fill-opacity:1;stroke:none;stroke-width:0.30541185"
           id="text8765"
           d="m 74.816406,116.18945 -1.820312,0.29297 v 2.90625 c -0.203608,-0.0896 -0.40772,-0.15816 -0.611328,-0.20703 -0.195464,-0.0489 -0.419402,-0.0723 -0.671875,-0.0723 -0.456082,-1e-5 -0.864307,0.0757 -1.222657,0.23046 -0.350205,0.15475 -0.646295,0.37868 -0.890625,0.67188 -0.244329,0.29319 -0.432191,0.65267 -0.5625,1.07617 -0.130309,0.41536 -0.195312,0.88306 -0.195312,1.4043 0,0.51309 0.07411,0.97722 0.220703,1.39258 0.154742,0.40721 0.373152,0.75758 0.658203,1.05078 0.285051,0.28505 0.635421,0.50541 1.050781,0.66015 0.415361,0.15475 0.888589,0.23242 1.417969,0.23242 0.219897,0 0.447409,-0.0127 0.683594,-0.0371 0.244329,-0.0163 0.480943,-0.0417 0.708984,-0.0742 0.236185,-0.0326 0.460123,-0.0687 0.671875,-0.10938 0.211752,-0.0489 0.399614,-0.0976 0.5625,-0.14648 z m -8.294922,0.1211 c -0.293195,0 -0.549634,0.0975 -0.769531,0.29297 -0.211752,0.18731 -0.318359,0.44928 -0.318359,0.7832 0,0.33392 0.106607,0.5975 0.318359,0.79297 0.219897,0.18732 0.476336,0.28125 0.769531,0.28125 0.293196,0 0.544108,-0.0939 0.75586,-0.28125 0.219896,-0.19547 0.330078,-0.45905 0.330078,-0.79297 0,-0.33392 -0.110182,-0.59589 -0.330078,-0.7832 -0.211752,-0.19547 -0.462664,-0.29297 -0.75586,-0.29297 z m 12.777344,2.76172 c -0.390927,0 -0.773799,0.0721 -1.148437,0.21875 -0.366495,0.14659 -0.691512,0.36338 -0.976563,0.64843 -0.285051,0.28505 -0.518091,0.64257 -0.697266,1.07422 -0.17103,0.42351 -0.255859,0.92013 -0.255859,1.49024 0,0.47237 0.065,0.91309 0.195313,1.32031 0.138453,0.40721 0.34614,0.76116 0.623046,1.0625 0.285052,0.29319 0.638996,0.52623 1.0625,0.69726 0.431649,0.17104 0.937379,0.25586 1.515626,0.25586 0.22804,0 0.455552,-0.0127 0.683593,-0.0371 0.228041,-0.0244 0.439302,-0.0569 0.634766,-0.0977 0.203608,-0.0326 0.387895,-0.0722 0.550781,-0.1211 0.162886,-0.0489 0.292893,-0.0976 0.390625,-0.14648 l -0.244141,-1.47852 c -0.203607,0.0896 -0.469149,0.16727 -0.794921,0.23243 -0.317629,0.057 -0.642646,0.084 -0.976563,0.084 -0.521236,0 -0.93661,-0.11018 -1.246094,-0.33008 -0.309484,-0.21989 -0.484669,-0.51598 -0.52539,-0.89062 h 4.128906 c 0.0081,-0.0977 0.01725,-0.20792 0.02539,-0.33008 0.0081,-0.13031 0.01172,-0.24764 0.01172,-0.35352 0,-1.08319 -0.265541,-1.90321 -0.794921,-2.45703 -0.529381,-0.56196 -1.249946,-0.84179 -2.16211,-0.84179 z m 6.669922,0 c -0.211752,0 -0.423013,0.0127 -0.634766,0.0371 -0.203608,0.0163 -0.398618,0.0397 -0.585937,0.0723 -0.187319,0.0244 -0.362504,0.0569 -0.525391,0.0977 -0.154742,0.0326 -0.284749,0.0651 -0.390625,0.0976 l 0.232422,1.4668 c 0.219897,-0.0814 0.47991,-0.14287 0.78125,-0.18359 0.30134,-0.0489 0.606532,-0.0742 0.916016,-0.0742 0.464226,0 0.789243,0.0939 0.976562,0.28125 0.18732,0.18732 0.28125,0.43661 0.28125,0.74609 v 0.16992 c -0.11402,-0.0326 -0.263852,-0.056 -0.451172,-0.0723 -0.179175,-0.0244 -0.386861,-0.0371 -0.623047,-0.0371 -0.350205,0 -0.687899,0.0361 -1.013671,0.10937 -0.325773,0.0652 -0.614714,0.17534 -0.867188,0.33008 -0.252474,0.15474 -0.456586,0.36243 -0.611328,0.62305 -0.146598,0.26062 -0.220703,0.57848 -0.220703,0.95312 0,0.39093 0.065,0.72148 0.195312,0.99024 0.130309,0.26876 0.318171,0.48912 0.5625,0.66015 0.24433,0.16289 0.533271,0.28022 0.867188,0.35352 0.342061,0.0733 0.721358,0.10937 1.136719,0.10937 0.659689,0 1.22132,-0.0396 1.685547,-0.12109 0.464226,-0.0733 0.827272,-0.1383 1.08789,-0.19531 v -3.78711 c 0,-0.39907 -0.04518,-0.76212 -0.134766,-1.08789 -0.08959,-0.32577 -0.244947,-0.60204 -0.464843,-0.83008 -0.211752,-0.22804 -0.497119,-0.40323 -0.855469,-0.52539 -0.35835,-0.12217 -0.806225,-0.18359 -1.34375,-0.18359 z m -20.351562,0.16992 v 6.42578 H 67.4375 v -6.42578 z m 13.707031,1.33203 c 0.211752,0 0.386937,0.0361 0.52539,0.10937 0.146598,0.0733 0.263929,0.16723 0.353516,0.28125 0.09773,0.11402 0.16631,0.24403 0.207031,0.39063 0.04887,0.1466 0.07779,0.29838 0.08594,0.45312 h -2.40625 c 0.02443,-0.15474 0.06051,-0.30652 0.109375,-0.45312 0.05701,-0.15474 0.13469,-0.28832 0.232422,-0.40235 0.09773,-0.11402 0.220589,-0.20437 0.367187,-0.26953 0.146598,-0.0733 0.321783,-0.10937 0.525391,-0.10937 z m -7.330078,0.0742 c 0.187319,0 0.369653,0.0234 0.548828,0.0723 0.187319,0.0489 0.339104,0.1103 0.453125,0.1836 v 3.31054 c -0.08959,0.0163 -0.203344,0.0325 -0.341797,0.0488 -0.138454,0.008 -0.290239,0.0117 -0.453125,0.0117 -0.496803,0 -0.870573,-0.16966 -1.123047,-0.51172 -0.252474,-0.34206 -0.378906,-0.79546 -0.378906,-1.35742 0,-1.17278 0.431624,-1.75781 1.294922,-1.75781 z m 14.292968,2.24804 c 0.122165,0 0.255746,0.007 0.402344,0.0234 0.146598,0.0163 0.256779,0.0325 0.330078,0.0488 v 1.38086 c -0.09773,0.0163 -0.227738,0.029 -0.390625,0.0371 -0.162886,0.008 -0.334497,0.0117 -0.513672,0.0117 -0.333917,0 -0.597505,-0.0523 -0.792968,-0.15821 -0.18732,-0.11402 -0.28125,-0.31455 -0.28125,-0.59961 0,-0.14659 0.0325,-0.26945 0.09766,-0.36718 0.06515,-0.0977 0.155511,-0.17346 0.269531,-0.23047 0.114021,-0.057 0.244027,-0.095 0.390625,-0.11133 0.154742,-0.0244 0.317251,-0.0352 0.488281,-0.0352 z" />
        <text
           xml:space="preserve"
           style="font-style:normal;font-weight:normal;font-size:12.21647453px;line-height:1.25;font-family:sans-serif;letter-spacing:0px;word-spacing:0px;fill:#000000;fill-opacity:1;stroke:none;stroke-width:0.30541185"
           x="109.51452"
           y="125.83979"
           id="text8775"><tspan
             sodipodi:role="line"
             id="tspan8773"
             x="109.51452"
             y="125.83979"
             style="stroke-width:0.30541185">!</tspan></text>
      </g>
    </g>
  </g>
</svg>
